<svg xmlns="http://www.w3.org/2000/svg" width="177.15" height="177.15" viewBox="0 0 177.15 177.15">
  <title>Asset 1801</title>
  <g id="Layer_2" data-name="Layer 2">
    <g id="Layer_2-2" data-name="Layer 2">
      <g>
        <rect width="177.15" height="177.15" rx="29.72" fill="#14253b"/>
        <g>
          <path d="M63.53,45.33,43.93,56A3.68,3.68,0,0,0,42,59.23v73.55l21.36-11.62a3.69,3.69,0,0,0,1.92-3.23v-42L88.58,88.58V59.23A3.69,3.69,0,0,0,86.65,56L67.05,45.33A3.72,3.72,0,0,0,63.53,45.33Z" fill="#2cbca5"/>
          <path d="M113.79,56a3.69,3.69,0,0,0-1.93,3.24v42L88.58,88.58v29.35a3.69,3.69,0,0,0,1.92,3.23l19.6,10.66a3.67,3.67,0,0,0,3.52,0l19.6-10.66a3.68,3.68,0,0,0,1.93-3.23V44.38Z" fill="#2cbca5"/>
        </g>
      </g>
    </g>
  </g>
</svg>
