<svg xmlns="http://www.w3.org/2000/svg" viewBox="0 0 225.01 52.03"><title>Asset 2471</title><path d="M67.15,36.28H61.86V35.17H73.65v1.11H68.36V51.65H67.15Z" fill="#fff"/><path d="M74.32,45.85v-.23a6.14,6.14,0,1,1,12.28,0v.23a6.14,6.14,0,1,1-12.28,0Zm11.06-.11c0-2.85-1.83-5.22-4.92-5.22s-4.94,2.37-4.94,5.22,1.76,5.19,4.94,5.19S85.38,48.49,85.38,45.74Z" fill="#fff"/><path d="M90.23,35.17h1.2V45.83l5.55-6h1.36L93.53,45l6.07,6.66H98.16L93.1,46.08H91.43v5.57h-1.2Z" fill="#fff"/><path d="M100.91,45.8v-.22c0-3.09,1.87-6.14,5.69-6.14a5.37,5.37,0,0,1,5.53,5.6v.81H102c.07,2.78,1.56,5.1,4.69,5.1,2.28,0,3.73-1.22,4-2.69H112c-.5,2.24-2.4,3.77-5.22,3.77C102.69,52,100.91,48.9,100.91,45.8Zm1.17-.94H111c-.18-2.53-1.74-4.34-4.38-4.34S102.38,42.42,102.08,44.86Z" fill="#fff"/><path d="M115.56,39.8h1v2.78a4.07,4.07,0,0,1,4.24-3.09h.07c3,0,4.49,2,4.49,5.16v7h-1.22V44.38c0-2.25-1.26-3.79-3.54-3.79a3.64,3.64,0,0,0-3.8,3.91v7.15h-1.19Z" fill="#fff"/><path d="M61.86,28.55V0H71L83,23.94h.5V0h5.25V28.55H79.58l-12-23.93H67V28.55Z" fill="#fff"/><path d="M105.55,29.3a12.12,12.12,0,0,1-6.33-1.55,10.46,10.46,0,0,1-3.93-4.05,11,11,0,0,1-1.35-5.32v-.82a11,11,0,0,1,1.39-5.43,10.43,10.43,0,0,1,4-4,13.39,13.39,0,0,1,12.43,0,10.43,10.43,0,0,1,4,4,11,11,0,0,1,1.39,5.43v.82a11,11,0,0,1-1.35,5.32,10.46,10.46,0,0,1-3.93,4.05A12.06,12.06,0,0,1,105.55,29.3Zm0-4.66a5.59,5.59,0,0,0,4.56-1.9A7.19,7.19,0,0,0,111.69,18a7.11,7.11,0,0,0-1.64-4.81,6.29,6.29,0,0,0-9,0A7.11,7.11,0,0,0,99.37,18,7.19,7.19,0,0,0,101,22.74,5.62,5.62,0,0,0,105.55,24.64Z" fill="#fff"/><path d="M125.7,28.55,119.05,7.31h5.59l5,16.78h.94l4.34-16.78h5.24l-5.75,21.24Z" fill="#fff"/><path d="M150,29.1a8.34,8.34,0,0,1-5.62-1.8,6.3,6.3,0,0,1-2.09-5,5.74,5.74,0,0,1,2.52-5.15,12.21,12.21,0,0,1,6.79-1.66H156v-.2c0-2.42-1.22-3.63-3.68-3.63-.65,0-1.43,0-2.34,0l-2.76.09c-.93,0-1.75.09-2.48.14V7.28c.88-.08,1.95-.15,3.18-.2S150.27,7,151.32,7c3.26,0,5.71.66,7.37,2s2.48,3.45,2.48,6.39V28.55h-4.3V24.48C155.91,27.56,153.62,29.1,150,29.1Zm1.52-3.87a5.35,5.35,0,0,0,2.07-.41,3.62,3.62,0,0,0,1.63-1.41,5.43,5.43,0,0,0,.72-2.72v-2h-4.42a4,4,0,0,0-2.87.92,3,3,0,0,0-1,2.36,3,3,0,0,0,1,2.37A4.23,4.23,0,0,0,151.55,25.23Z" fill="#fff"/><path d="M167.27,28.55V4.07h-2.65V0h8.09V28.55Z" fill="#fff"/><path d="M189.14,29.3a12.16,12.16,0,0,1-6.34-1.55,10.46,10.46,0,0,1-3.93-4.05,11,11,0,0,1-1.35-5.32v-.82a11,11,0,0,1,1.39-5.43,10.57,10.57,0,0,1,4-4,13.41,13.41,0,0,1,12.44,0,10.57,10.57,0,0,1,4,4,11.05,11.05,0,0,1,1.39,5.43v.82a11,11,0,0,1-1.35,5.32,10.46,10.46,0,0,1-3.93,4.05A12.06,12.06,0,0,1,189.14,29.3Zm0-4.66a5.6,5.6,0,0,0,4.56-1.9A7.24,7.24,0,0,0,195.28,18a7.16,7.16,0,0,0-1.64-4.81,6.3,6.3,0,0,0-9,0A7.16,7.16,0,0,0,183,18a7.24,7.24,0,0,0,1.58,4.79A5.64,5.64,0,0,0,189.14,24.64Z" fill="#fff"/><path d="M205.49,28.55V7.31h4.3v5.25q1.36-5.91,7.28-5.91h.23a6.9,6.9,0,0,1,5.75,2.46c1.3,1.65,2,4.07,2,7.28V28.55h-5.44V15.92a4.45,4.45,0,0,0-1.14-3.17,4,4,0,0,0-3.05-1.21,4.32,4.32,0,0,0-3.22,1.25,4.49,4.49,0,0,0-1.24,3.29V28.55Z" fill="#fff"/><path d="M11.15.5,1,6A1.88,1.88,0,0,0,0,7.69v38.1l11.06-6a1.91,1.91,0,0,0,1-1.68V16.33l12.06,6.56V7.69a1.88,1.88,0,0,0-1-1.67L13,.5A1.9,1.9,0,0,0,11.15.5Z" fill="#2cbca5"/><path d="M37.18,6a1.88,1.88,0,0,0-1,1.67V29.45L24.12,22.89v15.2a1.91,1.91,0,0,0,1,1.68l10.15,5.52a1.9,1.9,0,0,0,1.82,0l10.15-5.52a1.91,1.91,0,0,0,1-1.68V0Z" fill="#2cbca5"/></svg>