<svg xmlns="http://www.w3.org/2000/svg" width="309.59" height="57.04" viewBox="0 0 309.59 57.04">
  <title>Asset 1801</title>
  <g id="Layer_2" data-name="Layer 2">
    <g id="Layer_2-2" data-name="Layer 2">
      <g>
        <g>
          <path d="M81.24,48V8H94l16.8,33.5h.72V8h7.33V48H106L89.23,14.48h-.76V48Z"/>
          <path d="M142.39,49a17,17,0,0,1-8.87-2.16A14.64,14.64,0,0,1,128,41.2a15.48,15.48,0,0,1-1.89-7.45V32.6a15.4,15.4,0,0,1,2-7.61,14.8,14.8,0,0,1,5.58-5.64,18.85,18.85,0,0,1,17.41,0A14.8,14.8,0,0,1,156.65,25a15.4,15.4,0,0,1,1.95,7.61v1.15a15.48,15.48,0,0,1-1.89,7.45,14.64,14.64,0,0,1-5.5,5.66A16.91,16.91,0,0,1,142.39,49Zm0-6.51a7.81,7.81,0,0,0,6.38-2.66,10.07,10.07,0,0,0,2.22-6.7,10,10,0,0,0-2.3-6.74,8.8,8.8,0,0,0-12.65,0,10,10,0,0,0-2.3,6.74,10.07,10.07,0,0,0,2.22,6.7A7.88,7.88,0,0,0,142.39,42.51Z"/>
          <path d="M170.59,48l-9.31-29.72h7.83l7,23.48h1.31l6.08-23.48h7.33L182.8,48Z"/>
          <path d="M204.64,48.75a11.67,11.67,0,0,1-7.86-2.52,8.81,8.81,0,0,1-2.92-7.06c0-3.25,1.17-5.65,3.53-7.2s5.52-2.33,9.5-2.33H213v-.27q0-5.09-5.14-5.09c-.92,0-2,0-3.29,0l-3.86.14c-1.29.06-2.45.12-3.48.19V18.2c1.25-.11,2.73-.2,4.47-.27s3.33-.11,4.79-.11q6.84,0,10.32,2.76t3.47,9V48h-6V42.29Q212.2,48.76,204.64,48.75Zm2.14-5.42a7.46,7.46,0,0,0,2.9-.57,5,5,0,0,0,2.27-2A7.63,7.63,0,0,0,213,37V34.19h-6.18a5.77,5.77,0,0,0-4,1.28,4.32,4.32,0,0,0-1.39,3.32,4.2,4.2,0,0,0,1.39,3.31A5.9,5.9,0,0,0,206.78,43.33Z"/>
          <path d="M228.78,48V13.71h-3.72V8h11.33V48Z"/>
          <path d="M259.39,49a17,17,0,0,1-8.87-2.16A14.64,14.64,0,0,1,245,41.2a15.48,15.48,0,0,1-1.89-7.45V32.6A15.39,15.39,0,0,1,245.07,25a14.9,14.9,0,0,1,5.59-5.64,18.83,18.83,0,0,1,17.4,0A14.9,14.9,0,0,1,273.65,25a15.49,15.49,0,0,1,1.94,7.61v1.15a15.48,15.48,0,0,1-1.89,7.45,14.64,14.64,0,0,1-5.5,5.66A16.9,16.9,0,0,1,259.39,49Zm0-6.51a7.83,7.83,0,0,0,6.38-2.66,10.11,10.11,0,0,0,2.21-6.7,10,10,0,0,0-2.3-6.74,8.79,8.79,0,0,0-12.64,0,10,10,0,0,0-2.3,6.74,10.11,10.11,0,0,0,2.21,6.7A7.9,7.9,0,0,0,259.39,42.51Z"/>
          <path d="M282.27,48V18.26h6v7.33q1.92-8.27,10.19-8.26h.33c3.53,0,6.22,1.15,8,3.45s2.74,5.69,2.74,10.18V48H302V30.3a6.22,6.22,0,0,0-1.59-4.43,5.57,5.57,0,0,0-4.27-1.7,6,6,0,0,0-4.51,1.75,6.28,6.28,0,0,0-1.73,4.6V48Z"/>
        </g>
        <g>
          <path d="M13.89.62,1.24,7.5A2.37,2.37,0,0,0,0,9.58V57l13.78-7.49A2.38,2.38,0,0,0,15,47.46V20.35l15,8.17V9.58A2.37,2.37,0,0,0,28.81,7.5L16.16.62A2.35,2.35,0,0,0,13.89.62Z" fill="#2cbca5"/>
          <path d="M46.32,7.5a2.35,2.35,0,0,0-1.24,2.08V36.69l-15-8.17V47.46a2.39,2.39,0,0,0,1.24,2.09l12.65,6.88a2.4,2.4,0,0,0,2.27,0l12.65-6.88a2.39,2.39,0,0,0,1.24-2.09V0Z" fill="#2cbca5"/>
        </g>
      </g>
    </g>
  </g>
</svg>
